HIERARCHY
ROOT Hips
{
	OFFSET 0.000000 0.000000 0.000000 
	CHANNELS 6 Xposition Yposition Zposition Zrotation Yrotation Xrotation
	JOINT LeftUpLeg
	{
		OFFSET 1.363060 -1.794630 0.839290 
		CHANNELS 3 Zrotation Yrotation Xrotation
		JOINT LeftLeg
		{
			OFFSET 2.448110 -6.726130 0.000000 
			CHANNELS 3 Zrotation Yrotation Xrotation
			JOINT LeftFoot
			{
				OFFSET 2.562200 -7.039590 0.000000 
				CHANNELS 3 Zrotation Yrotation Xrotation
				JOINT LeftToeBase
				{
					OFFSET 0.157640 -0.433110 2.322550 
					CHANNELS 3 Zrotation Yrotation Xrotation
					End Site
					{
						OFFSET 0.000000 0.000000 0.000000 
					}
				}
			}
		}
	}
	JOINT RightUpLeg
	{
		OFFSET -1.305520 -1.794630 0.839290 
		CHANNELS 3 Zrotation Yrotation Xrotation
		JOINT RightLeg
		{
			OFFSET -2.542530 -6.985550 0.000000 
			CHANNELS 3 Zrotation Yrotation Xrotation
			JOINT RightFoot
			{
				OFFSET -2.568260 -7.056230 0.000000 
				CHANNELS 3 Zrotation Yrotation Xrotation
				JOINT RightToeBase
				{
					OFFSET -0.164730 -0.452590 2.363150 
					CHANNELS 3 Zrotation Yrotation Xrotation
					End Site
					{
						OFFSET 0.000000 0.000000 0.000000 
					}
				}
			}
		}
	}
	JOINT Spine
	{
		OFFSET 0.028270 2.035590 -0.193380 
		CHANNELS 3 Zrotation Yrotation Xrotation
		JOINT Spine1
		{
			OFFSET 0.056720 2.048850 -0.042750 
			CHANNELS 3 Zrotation Yrotation Xrotation
			JOINT Neck1
			{
				OFFSET -0.054170 1.746240 0.172020 
				CHANNELS 3 Zrotation Yrotation Xrotation
				JOINT Head
				{
					OFFSET 0.104070 1.761360 -0.123970 
					CHANNELS 3 Zrotation Yrotation Xrotation
					End Site
					{
						OFFSET 0.000000 0.000000 0.000000 
					}
				}
			}
			JOINT LeftArm
			{
				OFFSET 3.362410 1.200890 -0.311210 
				CHANNELS 3 Zrotation Yrotation Xrotation
				JOINT LeftForeArm
				{
					OFFSET 4.983000 -0.000000 -0.000000 
					CHANNELS 3 Zrotation Yrotation Xrotation
					JOINT LeftHand
					{
						OFFSET 3.483560 -0.000000 -0.000000 
						CHANNELS 3 Zrotation Yrotation Xrotation
						JOINT LeftHandIndex1
						{
							OFFSET 0.715260 -0.000000 -0.000000 
							CHANNELS 3 Zrotation Yrotation Xrotation
							End Site
							{
								OFFSET 0.000000 0.000000 0.000000 
							}
						}
					}
				}
			}
			JOINT RightArm
			{
				OFFSET -3.136600 1.374050 -0.404650 
				CHANNELS 3 Zrotation Yrotation Xrotation
				JOINT RightForeArm
				{
					OFFSET -5.241900 -0.000000 -0.000000 
					CHANNELS 3 Zrotation Yrotation Xrotation
					JOINT RightHand
					{
						OFFSET -3.444170 -0.000000 -0.000000 
						CHANNELS 3 Zrotation Yrotation Xrotation
						JOINT RightHandIndex1
						{
							OFFSET -0.622530 -0.000000 -0.000000 
							CHANNELS 3 Zrotation Yrotation Xrotation
							End Site
							{
								OFFSET 0.000000 0.000000 0.000000 
							}
						}
					}
				}
			}
		}
	}
}
MOTION
Frames: 17
Frame Time: 0.041667
0.833321 17.984514 -0.811037 1.147048 -27.919669 5.329396 -20.001306 -3.083003 -8.611944 -0.616200 4.303292 15.398498 -0.643226 3.660463 -1.460524 0.353200 -3.818200 -10.565700 9.489598 7.992527 -13.373828 -0.425359 -6.863471 20.741188 1.318546 -8.684661 -9.010961 -0.040800 -1.303700 3.585000 0.236144 1.683999 -0.721077 1.917711 1.362346 0.240723 -0.238818 5.254253 34.411432 2.085300 0.445300 17.305000 -73.672867 -2.875124 64.239249 72.090447 -59.929467 -47.611914 0.632679 -0.830578 -14.026533 -7.125000 0.000000 0.000000 55.692671 20.069073 49.387600 -123.390485 53.293513 -91.035418 0.731343 -0.387561 9.103154 7.125000 0.000000 0.000000 
0.830024 17.983814 -0.808139 1.200735 -27.835677 5.249497 -20.042196 -3.060670 -8.499969 -0.622959 4.273197 15.326289 -0.626961 3.567997 -1.397568 0.337900 -3.735600 -10.334000 9.461167 7.906487 -13.312149 -0.429140 -6.870872 20.761981 1.309099 -8.647294 -9.041971 -0.038400 -1.265000 3.478400 0.255271 1.662699 -0.751178 2.007181 1.355580 0.121417 -0.413804 5.303366 34.634380 1.967100 0.467500 17.513600 -73.773507 -2.742155 64.074228 73.213652 -60.134777 -48.574273 0.635291 -0.824592 -13.725034 -7.125000 0.000000 0.000000 56.354153 19.404902 48.669787 -122.999157 53.420887 -90.752473 0.739572 -0.350408 8.446004 7.125000 0.000000 0.000000 
0.827326 17.983615 -0.808039 1.208315 -27.755525 5.195121 -20.032321 -3.041827 -8.454471 -0.621598 4.272767 15.328619 -0.610629 3.480584 -1.354655 0.340200 -3.748200 -10.369300 9.479147 7.833046 -13.247147 -0.428855 -6.865589 20.753181 1.307699 -8.640691 -9.045275 -0.026900 -1.058300 2.909100 0.360131 1.626953 -0.815973 2.240177 1.339013 -0.073071 -0.227355 5.141891 34.187549 2.089700 0.399000 17.131100 -73.996707 -2.587872 63.888449 74.336790 -60.329717 -49.531144 0.638883 -0.815721 -13.451279 -7.125000 0.000000 0.000000 56.852684 18.711257 47.947721 -122.508942 53.582293 -90.392268 0.744285 -0.314632 7.895021 7.125000 0.000000 0.000000 
0.824827 17.984014 -0.808838 1.214854 -27.686812 5.193803 -20.025453 -3.023496 -8.464675 -0.621327 4.273207 15.329935 -0.597667 3.414489 -1.340376 0.353500 -3.819700 -10.570000 9.489072 7.865877 -13.206221 -0.426250 -6.861726 20.746471 1.307494 -8.667767 -9.183210 -0.026400 -1.049300 2.884600 0.418903 1.586578 -0.845275 2.385571 1.319822 -0.152167 -0.202355 5.067640 33.972721 2.103200 0.372900 16.966400 -74.151352 -2.533282 63.661308 75.527702 -60.525994 -50.543552 0.642422 -0.805616 -13.306973 -7.125000 0.000000 0.000000 57.444213 18.080035 47.221563 -121.932673 53.766374 -89.956794 0.749583 -0.291961 7.506198 7.125000 0.000000 0.000000 
0.822729 17.984714 -0.806740 1.200242 -27.659157 5.228324 -20.004086 -3.067581 -8.491557 -0.619700 4.282986 15.352912 -0.599631 3.428708 -1.367686 0.363600 -3.873400 -10.720800 9.509946 7.872156 -13.211375 -0.424656 -6.859351 20.742586 1.304531 -8.670440 -9.264329 -0.032400 -1.161400 3.193100 0.427712 1.570010 -0.844799 2.404422 1.310165 -0.126140 -0.137826 4.994546 33.868300 2.118900 0.360200 16.898200 -74.229941 -2.546539 63.479593 76.764413 -60.718676 -51.588012 0.644513 -0.795472 -13.109814 -7.125000 0.000000 0.000000 58.218362 17.515632 46.467621 -121.249568 53.975323 -89.436783 0.750527 -0.276753 7.246318 7.125000 0.000000 0.000000 
0.820830 17.984514 -0.805641 1.173387 -27.607314 5.240857 -19.964194 -3.061091 -8.524151 -0.614897 4.298053 15.392940 -0.584609 3.352247 -1.342181 0.358600 -3.847200 -10.647100 9.548448 7.747920 -13.236964 -0.427398 -6.861193 20.751452 1.289826 -8.590935 -9.205760 -0.034000 -1.190600 3.273300 0.464584 1.547436 -0.846130 2.460296 1.297544 -0.127666 -0.044352 4.913087 33.720254 2.164300 0.334900 16.793300 -74.333606 -2.588908 63.363925 78.066150 -60.909300 -52.680170 0.646189 -0.783729 -12.778063 -7.125000 0.000000 0.000000 58.971202 16.896181 45.672478 -120.501276 54.199102 -88.865700 0.748590 -0.261601 7.158018 7.125000 0.000000 0.000000 
0.817532 17.984114 -0.804142 1.161143 -27.572867 5.248685 -19.948203 -3.082985 -8.531369 -0.610589 4.311808 15.430330 -0.582844 3.345011 -1.353458 0.358900 -3.848600 -10.651200 9.573189 7.640551 -13.261832 -0.432640 -6.868506 20.772720 1.291634 -8.572346 -9.070887 -0.024400 -1.008500 2.772300 0.480183 1.545679 -0.829479 2.498358 1.295225 -0.100163 -0.047256 4.843271 33.436683 2.154300 0.322000 16.609700 -74.395047 -2.693442 63.210157 79.423397 -61.093815 -53.814074 0.648207 -0.769500 -12.342978 -7.125000 0.000000 0.000000 59.667407 16.191122 44.849619 -119.703011 54.432607 -88.247736 0.748862 -0.253842 7.299898 7.125000 0.000000 0.000000 
0.815234 17.983115 -0.802843 1.137514 -27.556251 5.243418 -19.921283 -3.130923 -8.506508 -0.607074 4.324188 15.463395 -0.589997 3.384830 -1.381672 0.357500 -3.841100 -10.630100 9.601979 7.626151 -13.246597 -0.436885 -6.875473 20.797260 1.292155 -8.568323 -9.038040 -0.021300 -0.942700 2.591200 0.502131 1.552368 -0.809424 2.542202 1.296322 -0.089150 0.061033 4.744346 33.029196 2.206100 0.304800 16.342800 -74.463233 -2.781726 63.016983 80.981341 -61.289586 -55.108025 0.649443 -0.751457 -12.193471 -7.125000 0.000000 0.000000 60.313062 15.535832 44.073270 -118.676577 54.718250 -87.443607 0.750932 -0.245005 7.588958 7.125000 0.000000 0.000000 
0.812536 17.982216 -0.802543 1.138848 -27.547245 5.217627 -19.909680 -3.148335 -8.490085 -0.602574 4.337402 15.501476 -0.585057 3.366330 -1.433490 0.354500 -3.825100 -10.585200 9.607227 7.634521 -13.225680 -0.439895 -6.883248 20.824758 1.274735 -8.512601 -9.161582 -0.025800 -1.036900 2.850400 0.498026 1.576559 -0.797151 2.559842 1.307075 -0.111573 0.160233 4.608907 32.759008 2.237100 0.272600 16.180300 -74.488763 -2.891593 62.840004 82.711338 -61.484768 -56.538118 0.649599 -0.731065 -12.425630 -7.125000 0.000000 0.000000 61.015969 14.898708 43.304102 -117.492748 55.027031 -86.508159 0.757136 -0.234013 8.008954 7.125000 0.000000 0.000000 
0.808739 17.981516 -0.800045 1.115239 -27.573339 5.199194 -19.884566 -3.187060 -8.452674 -0.598466 4.350740 15.537434 -0.599033 3.443649 -1.487675 0.357200 -3.839700 -10.626100 9.634750 7.692382 -13.180826 -0.441554 -6.887082 20.843366 1.259431 -8.462461 -9.260864 -0.040700 -1.302000 3.580100 0.507808 1.635971 -0.775836 2.580682 1.334764 -0.102599 0.249392 4.482120 32.600561 2.266200 0.235100 16.091800 -74.531558 -3.040746 62.687716 84.402069 -61.651711 -57.925942 0.648293 -0.710409 -12.546017 -7.125000 0.000000 0.000000 61.685124 14.206080 42.464436 -116.171744 55.351973 -85.454355 0.764446 -0.234193 8.652013 7.125000 0.000000 0.000000 
0.803842 17.980916 -0.798945 1.078046 -27.570374 5.228283 -19.851218 -3.088835 -8.519733 -0.591118 4.369942 15.588958 -0.590635 3.400355 -1.458384 0.395300 -4.036900 -11.180600 9.682047 7.727082 -13.157482 -0.439794 -6.881918 20.833058 1.269137 -8.504016 -9.244308 -0.052000 -1.471800 4.047900 0.545951 1.652687 -0.755361 2.663465 1.341307 -0.061454 0.261738 4.438239 32.539929 2.265200 0.222900 16.070800 -74.564865 -3.233136 62.499184 86.052230 -61.791596 -59.272049 0.645606 -0.690510 -12.205360 -7.125000 0.000000 0.000000 62.324764 13.552424 41.684536 -114.790534 55.667009 -84.353062 0.763862 -0.231794 9.208562 7.125000 0.000000 0.000000 
0.800844 17.981316 -0.796147 1.045733 -27.534118 5.286582 -19.829855 -2.984924 -8.607375 -0.585037 4.386601 15.633823 -0.572647 3.314233 -1.469903 0.419800 -4.158900 -11.524200 9.712213 7.698994 -13.172954 -0.435624 -6.872810 20.807536 1.272788 -8.524884 -9.264250 -0.043100 -1.340300 3.685700 0.574048 1.632140 -0.722026 2.711090 1.327662 0.028705 0.295221 4.442549 32.525071 2.283800 0.228300 16.096200 -74.580984 -3.539113 62.318738 87.588725 -61.899013 -60.514893 0.641336 -0.670354 -11.778725 -7.125000 0.000000 0.000000 62.921677 12.907155 40.949011 -113.382634 55.962916 -83.227312 0.762149 -0.222860 9.674569 7.125000 0.000000 0.000000 
0.797946 17.980916 -0.792250 0.949725 -27.517760 5.336030 -19.727256 -3.056498 -8.583935 -0.585845 4.391150 15.640113 -0.577354 3.347796 -1.536572 0.408200 -4.101300 -11.361900 9.805998 7.710300 -13.134087 -0.431122 -6.861526 20.785002 1.272556 -8.540655 -9.339396 -0.033600 -1.183800 3.254800 0.616479 1.591805 -0.693862 2.730005 1.304223 0.090036 0.386510 4.402681 32.394589 2.337200 0.215600 16.037100 -74.633989 -3.851517 62.065957 89.062670 -61.981815 -61.702858 0.636210 -0.650625 -11.561899 -7.125000 0.000000 0.000000 63.516833 12.350486 40.324177 -111.679298 56.283102 -81.850155 0.765626 -0.213235 10.021106 7.125000 0.000000 0.000000 
0.794548 17.980717 -0.786454 0.920626 -27.506255 5.316896 -19.697546 -3.085632 -8.501498 -0.589522 4.379348 15.608731 -0.582947 3.377613 -1.551009 0.409800 -4.109700 -11.385400 9.840950 7.718173 -13.059864 -0.429287 -6.854464 20.771410 1.274387 -8.550268 -9.346655 -0.038600 -1.267700 3.485700 0.671272 1.523175 -0.693524 2.817996 1.267265 0.094717 0.529425 4.357664 32.223871 2.432000 0.192000 15.917200 -74.737009 -4.050721 61.720435 90.645823 -62.050767 -62.972482 0.629895 -0.628361 -11.307643 -7.125000 0.000000 0.000000 64.133178 11.716340 39.782000 -109.861084 56.585370 -80.371316 0.766721 -0.204026 10.239429 7.125000 0.000000 0.000000 
0.789852 17.980817 -0.778360 0.990136 -27.497701 5.286814 -19.767645 -3.082842 -8.437804 -0.593587 4.361598 15.567766 -0.578820 3.353799 -1.546369 0.400500 -4.062900 -11.253600 9.778325 7.621838 -13.067781 -0.431159 -6.856774 20.769011 1.272600 -8.513525 -9.215884 -0.033700 -1.185400 3.259000 0.701010 1.487595 -0.727226 2.950060 1.250413 0.077000 0.497773 4.394520 32.180848 2.416900 0.210100 15.884500 -74.852879 -4.187700 61.430051 92.257335 -62.098436 -64.258420 0.622618 -0.605388 -11.074901 -7.125000 0.000000 0.000000 64.725176 10.912507 39.240110 -108.019822 56.852880 -78.860100 0.773725 -0.190345 10.420240 7.125000 0.000000 0.000000 
0.785155 17.981316 -0.771764 1.043148 -27.460097 5.277732 -19.807199 -3.118739 -8.375289 -0.600726 4.338061 15.507621 -0.578470 3.347365 -1.525114 0.386900 -3.994500 -11.061200 9.738216 7.541827 -13.085144 -0.433408 -6.863479 20.780536 1.267516 -8.486414 -9.200632 -0.030300 -1.124000 3.090100 0.743398 1.484008 -0.748985 3.102911 1.251471 0.067388 0.282357 4.447466 32.277546 2.292300 0.230800 15.995500 -74.985016 -4.398137 61.279400 93.991652 -62.121858 -65.633156 0.613307 -0.579560 -10.946967 -7.125000 0.000000 0.000000 65.273809 10.120807 38.595071 -105.992235 57.102348 -77.179478 0.783936 -0.188510 10.643758 7.125000 0.000000 0.000000 
0.781657 17.981616 -0.769366 1.097883 -27.383940 5.303046 -19.845738 -3.172612 -8.338383 -0.612866 4.303329 15.413155 -0.576460 3.331940 -1.491401 0.389100 -4.005600 -11.092400 9.704012 7.456696 -13.153671 -0.438246 -6.877882 20.814172 1.263558 -8.473819 -9.227318 -0.026400 -1.048100 2.881100 0.736538 1.463570 -0.755787 3.161733 1.240670 0.087255 0.248295 4.394283 32.273485 2.252600 0.220100 16.045900 -74.927496 -4.749609 61.238629 95.701335 -62.111235 -66.977245 0.602087 -0.552003 -10.751681 -7.125000 0.000000 0.000000 65.871334 9.447005 37.910893 -103.753172 57.319973 -75.313407 0.790218 -0.187217 10.753615 7.125000 0.000000 0.000000 
